# xmcd CD database file
#
# Track frame offsets:
#	150
#	14127
#	31039
#	43529
#	60566
#	71458
#	88289
#	104835
#	117749
#	134187
#	155054
#	164576
#	178402
#	195682
#	206370
#	217294
#	236743
#	247944
#	261099
#	278031
#	289285
#	301469
#	313118
#	323527
#	333618
#	341697
#
# Disc length: 4683 seconds
#
# Revision: 0
# Processed by: cddbd v1.5.2PL0 Copyright (c) Steve Scherf et al.
# Submitted via: CDex 1.51
#
DISCID=a912491a
DTITLE=Ricky Skaggs - Favorite Country Songs (1-10) Family and Friends (11-20)
DYEAR=1900
DGENRE=Country
TTITLE0=01-If That's The Way You Feel
TTITLE1=02-Sweet Temptation
TTITLE2=03-I'll Take The Blame
TTITLE3=04-Waitin' For The Sun To Shine
TTITLE4=05-You May See Me Walkin'
TTITLE5=06-Can't You Hear Me Callin'
TTITLE6=07-Your Old Love Letters
TTITLE7=08-Lost To A Stranger
TTITLE8=09-A Wound Time Can't Erase
TTITLE9=10-Nothing Can Hurt You
TTITLE10=01-Lost And I'll Never Find The Way
TTITLE11=02-Two Different Worlds
TTITLE12=03-River Of Memory
TTITLE13=04-Talk About Sufferin'
TTITLE14=05-Think Of What You've Done
TTITLE15=06-Toy Heart
TTITLE16=07-Hallelujah I'm Ready
TTITLE17=08-Say, Won't You Be Mine
TTITLE18=09-Won't It Be Wonderful There
TTITLE19=10-River Of Jordan
TTITLE20=03 - Ricky Skaggs - Working on a building
TTITLE21=10 - Ricky Skaggs - The darkest hour is just before dawn
TTITLE22=13 - Ricky Skaggs - In heaven we'll never grow old
TTITLE23=14 - Ricky Skaggs - Wings of angels
TTITLE24=15 - Ricky Skaggs - A few more seasons to come
TTITLE25=18 - Ricky Skaggs - Leaning on Jesus
EXTD=
EXTT0=
EXTT1=
EXTT2=
EXTT3=
EXTT4=
EXTT5=
EXTT6=
EXTT7=
EXTT8=
EXTT9=
EXTT10=
EXTT11=
EXTT12=
EXTT13=
EXTT14=
EXTT15=
EXTT16=
EXTT17=
EXTT18=
EXTT19=
EXTT20=
EXTT21=
EXTT22=
EXTT23=
EXTT24=
EXTT25=
PLAYORDER=
